<?xml version="1.0" standalone="no"?>
<!DOCTYPE svg PUBLIC "-//W3C//DTD SVG 20010904//EN"
 "http://www.w3.org/TR/2001/REC-SVG-20010904/DTD/svg10.dtd">
<svg version="1.0" xmlns="http://www.w3.org/2000/svg"
 width="180.000000pt" height="180.000000pt" viewBox="0 0 180.000000 180.000000"
 preserveAspectRatio="xMidYMid meet">
<metadata>
Created by potrace 1.16, written by Peter Selinger 2001-2019
</metadata>
<g transform="translate(0.000000,180.000000) scale(0.022585,-0.022585)"
fill="#000000" stroke="none">
<path d="M3600 7964 c-495 -58 -779 -128 -1175 -291 -792 -326 -1480 -926
-1918 -1674 -224 -383 -377 -786 -475 -1259 l-26 -125 -4 -595 c-4 -637 -3
-642 49 -885 89 -409 223 -761 432 -1130 187 -329 381 -582 661 -860 626 -624
1421 -1016 2289 -1130 168 -22 886 -22 1054 0 755 99 1452 408 2053 909 115
96 368 349 472 471 1436 1696 1213 4238 -496 5660 -571 475 -1253 778 -2001
887 -117 17 -200 21 -510 23 -203 2 -386 1 -405 -1z m665 -114 c768 -64 1455
-329 2069 -799 254 -194 545 -490 740 -751 409 -549 666 -1202 748 -1905 17
-147 17 -685 0 -825 -74 -601 -245 -1108 -537 -1595 -374 -620 -923 -1130
-1575 -1460 -1249 -631 -2749 -539 -3910 240 -208 140 -473 358 -614 508 -203
215 -310 347 -451 558 -352 525 -555 1085 -637 1749 -17 140 -17 678 0 825 74
630 281 1205 617 1715 107 162 157 229 281 375 661 781 1574 1258 2597 1360
162 16 510 18 672 5z"/>
<path d="M3820 7540 l0 -190 45 0 45 0 1 108 0 107 33 -105 32 -105 47 -3 47
-3 0 190 0 191 -40 0 -40 0 -1 -112 -1 -113 -36 113 -36 112 -48 0 -48 0 0
-190z"/>
<path d="M3640 7711 l-45 -6 -17 -145 c-9 -80 -17 -164 -17 -187 l-1 -43 40 0
c39 0 40 1 40 35 0 21 5 35 13 35 6 0 22 3 35 6 19 6 22 3 22 -24 0 -39 9 -44
58 -36 46 7 48 -17 -17 216 -23 80 -41 149 -41 152 0 3 -6 5 -12 4 -7 0 -33
-4 -58 -7z"/>
<path d="M4150 7692 c-29 -29 -34 -49 -45 -202 -5 -64 -3 -80 14 -107 38 -61
149 -65 187 -7 22 33 40 244 25 282 -27 65 -130 84 -181 34z"/>
<path d="M4396 7678 c-3 -13 -13 -72 -22 -133 -9 -60 -20 -132 -24 -160 -5
-27 -7 -52 -5 -53 2 -2 21 -6 43 -9 l39 -5 13 101 c7 55 16 101 20 101 4 0 13
-48 20 -106 7 -58 18 -107 24 -109 6 -2 28 -6 48 -10 l37 -6 6 48 c4 26 15
102 26 168 27 168 27 165 -20 165 l-39 0 -11 -63 c-6 -35 -11 -75 -11 -88 0
-13 -4 -30 -8 -37 -5 -8 -14 27 -22 87 -7 55 -16 104 -19 109 -3 5 -25 13 -48
17 -39 6 -43 5 -47 -17z"/>
<path d="M3260 7662 c-47 -8 -87 -17 -89 -19 -3 -1 11 -85 29 -184 l34 -181
55 6 c30 4 74 11 97 17 41 11 43 12 37 43 -3 17 -7 33 -9 34 -1 2 -24 -1 -51
-6 -26 -6 -51 -8 -55 -4 -3 4 -8 23 -10 42 -3 33 -1 35 35 41 47 8 50 11 42
47 -6 29 -9 30 -53 29 -46 -2 -47 -1 -50 30 -3 31 -2 32 43 38 25 4 47 10 49
14 6 9 -5 71 -13 70 -3 -1 -44 -8 -91 -17z"/>
<path d="M4694 7578 c10 -117 8 -189 -8 -245 -16 -58 -14 -61 39 -73 l33 -7
16 75 c11 50 31 100 59 146 56 94 71 125 65 131 -3 3 -22 6 -42 8 -36 2 -38 0
-61 -53 l-24 -55 -1 66 c0 66 0 67 -31 73 -52 10 -52 11 -45 -66z"/>
<path d="M2960 7592 c-30 -8 -57 -17 -59 -18 -2 -2 18 -84 45 -184 37 -141 50
-180 62 -175 7 3 25 8 38 11 28 7 29 21 9 88 -20 66 -19 76 9 76 21 0 26 -7
36 -52 19 -82 26 -90 63 -83 18 4 35 10 39 14 7 6 -23 115 -42 151 -6 11 -17
20 -25 20 -17 0 -20 16 -5 25 17 10 11 78 -10 113 -18 28 -24 32 -62 31 -24
-1 -68 -8 -98 -17z"/>
<path d="M4950 7586 c0 -3 -25 -82 -55 -177 -30 -95 -54 -173 -52 -174 1 -1
19 -6 40 -12 29 -9 39 -9 42 0 3 7 21 64 40 127 20 63 38 116 40 119 5 4 4 -7
-15 -114 -5 -27 -12 -75 -16 -106 -6 -55 -5 -56 21 -63 15 -4 28 -6 29 -4 13
30 122 236 123 234 2 -1 -15 -56 -37 -121 -22 -66 -40 -122 -40 -126 0 -7 55
-29 71 -29 8 0 124 349 117 354 -7 7 -103 36 -115 36 -8 0 -30 -34 -49 -75
-19 -41 -36 -75 -38 -75 -2 0 3 28 10 63 23 108 22 110 -44 130 -61 18 -72 20
-72 13z"/>
<path d="M2720 7516 c-27 -10 -35 -18 -34 -37 1 -32 46 -343 51 -348 1 -2 21
1 42 8 38 11 39 13 34 46 -5 31 -3 35 23 41 16 4 29 3 31 -3 2 -6 10 -18 17
-28 11 -15 17 -16 49 -6 21 7 37 17 37 23 0 5 -39 79 -87 164 -95 166 -94 165
-163 140z"/>
<path d="M5335 7441 c-11 -5 -28 -17 -37 -28 -25 -27 -98 -208 -98 -241 0 -77
116 -132 177 -84 25 19 101 185 110 238 8 47 -11 79 -62 104 -45 22 -59 23
-90 11z"/>
<path d="M2368 7372 c-46 -22 -77 -43 -77 -52 0 -8 35 -86 77 -173 l77 -158
85 41 c47 23 86 43 88 45 1 1 -3 14 -9 29 -14 29 -32 32 -69 11 -39 -22 -57
-18 -69 16 -13 37 -10 43 29 59 16 7 30 17 30 22 0 8 -17 46 -25 56 -1 2 -19
-5 -40 -15 -36 -17 -37 -17 -51 2 -23 32 -16 51 26 70 22 10 40 22 40 26 0 16
-20 59 -27 58 -5 0 -43 -17 -85 -37z"/>
<path d="M5495 7230 c-85 -169 -85 -214 -1 -254 84 -40 117 -14 202 156 36 72
64 131 62 133 -9 8 -70 36 -73 33 -1 -2 -33 -63 -70 -135 -63 -126 -87 -154
-101 -119 -3 8 24 74 61 146 36 73 65 133 63 134 -40 26 -59 36 -68 36 -5 0
-39 -58 -75 -130z"/>
<path d="M2203 7292 c-18 -9 -33 -22 -33 -29 0 -7 20 -59 45 -115 24 -56 43
-103 42 -105 -2 -1 -33 40 -70 92 -37 52 -73 95 -80 95 -10 0 -30 -11 -65 -35
-1 -2 20 -51 48 -110 27 -60 49 -110 46 -112 -2 -3 -100 125 -138 181 -8 12
-78 -18 -78 -34 0 -7 179 -228 230 -283 5 -6 42 10 88 38 2 2 -16 45 -60 143
-23 51 -17 67 9 26 28 -45 94 -134 99 -134 8 0 84 40 84 44 0 6 -129 349 -132
351 -2 2 -18 -4 -35 -13z"/>
<path d="M3660 7199 c-1117 -110 -2080 -768 -2587 -1768 -219 -432 -327 -867
-340 -1366 -14 -566 99 -1065 354 -1563 460 -899 1333 -1540 2323 -1706 391
-66 812 -60 1190 15 107 22 346 86 416 113 413 156 659 292 959 532 635 506
1065 1248 1179 2034 58 396 45 805 -36 1180 -127 593 -447 1175 -878 1599
-517 509 -1141 816 -1862 916 -136 19 -580 28 -718 14z m755 -137 c227 -39
349 -68 543 -131 267 -87 589 -254 836 -433 324 -235 639 -581 844 -928 182
-308 309 -641 376 -985 46 -230 51 -296 51 -615 -1 -266 -3 -323 -23 -443 -73
-459 -229 -870 -467 -1239 -283 -435 -671 -794 -1130 -1045 -104 -57 -129 -69
-250 -122 -116 -51 -315 -123 -323 -116 -3 2 -32 370 -32 409 0 23 3 27 18 21
130 -54 362 -66 510 -27 100 27 206 79 284 138 54 42 132 124 124 131 -2 2
-23 -8 -47 -22 -122 -70 -330 -102 -496 -75 -116 18 -391 127 -415 164 -14 21
-9 66 8 73 9 3 67 -8 128 -25 175 -50 224 -62 326 -77 121 -19 196 -19 304 0
303 53 546 207 674 428 32 56 28 57 -25 5 -139 -134 -305 -188 -628 -203 -153
-7 -291 -23 -459 -55 -61 -11 -112 -20 -115 -19 -3 0 35 15 85 32 114 41 192
87 259 153 42 41 70 88 150 245 54 107 107 207 118 222 55 79 -50 9 -208 -138
-59 -55 -110 -101 -114 -103 -4 -1 -5 13 -3 32 4 33 -25 414 -33 425 -1 3 -8
67 -15 141 -7 76 -20 161 -31 194 -19 55 -19 59 -3 71 16 12 16 14 -3 39 -22
28 -21 57 3 77 21 17 17 34 -11 47 -19 9 -25 19 -25 44 0 18 -11 115 -24 215
-32 245 -45 264 -186 277 -96 9 -299 50 -370 74 -66 23 -108 47 -157 93 -50
46 -197 156 -233 174 -41 21 -57 19 -35 -5 29 -32 -3 -34 -71 -4 -52 24 -72
27 -164 27 -92 0 -112 -3 -164 -27 -68 -30 -100 -28 -71 4 69 76 -155 -65
-268 -169 -49 -45 -90 -70 -157 -93 -71 -24 -274 -65 -370 -74 -141 -13 -154
-32 -186 -277 -13 -100 -24 -198 -24 -218 0 -31 -4 -38 -25 -43 -28 -7 -33
-27 -11 -45 24 -20 25 -49 3 -77 -20 -26 -20 -27 -3 -40 17 -12 18 -16 3 -52
-9 -22 -21 -77 -26 -123 -43 -355 -66 -609 -59 -658 3 -18 1 -30 -3 -29 -4 2
-52 45 -108 97 -97 91 -208 181 -223 181 -12 0 -9 -10 11 -38 10 -15 56 -101
101 -192 106 -212 145 -268 223 -323 78 -56 123 -79 214 -108 40 -12 71 -24
69 -26 -1 -2 -63 8 -137 22 -166 30 -270 42 -424 50 -337 17 -480 62 -632 199
-29 26 -53 45 -53 42 0 -13 48 -87 97 -147 131 -163 347 -280 599 -324 174
-30 331 -11 629 76 114 34 145 32 145 -9 0 -39 -7 -45 -85 -84 -108 -55 -252
-105 -338 -118 -166 -27 -374 5 -496 75 -24 14 -45 24 -47 22 -8 -7 70 -89
124 -131 151 -116 357 -176 552 -162 75 6 193 30 243 51 21 9 21 2 2 -240 -8
-99 -15 -183 -15 -187 -1 -22 -318 102 -505 198 -809 414 -1399 1161 -1611
2040 -57 239 -75 382 -81 645 -6 255 5 424 38 618 108 630 408 1210 864 1667
522 524 1172 830 1930 908 22 2 168 2 325 1 229 -3 308 -7 405 -23z m-704
-2923 c16 -11 68 -38 116 -61 49 -22 90 -42 92 -44 3 -2 -5 -14 -16 -27 -27
-28 -115 -205 -110 -220 2 -6 13 5 24 24 12 19 33 45 47 58 25 24 26 24 46 6
25 -23 23 -46 -22 -198 -28 -99 -29 -111 -35 -374 -3 -150 -9 -273 -12 -273
-13 0 -104 149 -151 245 -27 55 -61 141 -76 190 -24 78 -28 107 -28 220 0 116
3 139 28 210 21 61 26 89 21 125 -5 34 -1 57 14 93 11 26 23 47 27 47 3 0 19
-9 35 -21z m560 -26 c15 -36 19 -59 14 -97 -5 -41 -1 -65 19 -118 67 -176 38
-401 -82 -640 -47 -92 -131 -228 -143 -228 -3 0 -9 123 -12 273 -5 263 -7 275
-35 377 -46 158 -47 172 -23 194 21 19 22 19 47 -5 14 -13 35 -39 47 -58 11
-19 23 -29 25 -23 4 14 -107 232 -119 232 -28 0 1 21 75 54 46 21 99 48 118
61 18 13 37 24 41 25 4 0 17 -21 28 -47z"/>
<path d="M2290 5966 c-69 -28 -158 -69 -198 -91 -174 -94 -278 -235 -352 -475
-18 -58 -39 -118 -47 -134 -19 -36 -18 -36 132 85 150 121 218 191 290 299 81
119 182 245 253 313 33 31 57 57 54 56 -4 0 -63 -24 -132 -53z"/>
<path d="M5500 6015 c0 -2 27 -30 61 -62 68 -65 156 -175 243 -303 73 -108
141 -178 291 -299 150 -121 151 -121 132 -85 -8 16 -29 76 -47 134 -76 248
-183 388 -370 484 -80 42 -310 138 -310 131z"/>
<path d="M1754 5701 c-132 -64 -225 -165 -283 -308 -49 -121 -52 -147 -49
-465 3 -260 5 -293 17 -270 47 91 209 251 406 400 98 75 171 157 214 242 34
67 67 169 76 230 l6 45 -17 -30 c-51 -92 -124 -163 -304 -295 -172 -126 -218
-174 -280 -296 -41 -82 -37 -54 10 73 49 130 77 236 96 362 18 116 63 207 144
292 30 33 53 59 50 59 -3 0 -42 -17 -86 -39z"/>
<path d="M6130 5681 c82 -85 125 -174 145 -296 22 -135 47 -230 95 -358 47
-127 51 -155 10 -74 -64 126 -110 174 -290 305 -147 106 -217 172 -272 256
l-40 61 7 -45 c20 -120 70 -239 142 -332 45 -59 59 -72 203 -183 169 -132 307
-271 351 -357 12 -23 14 14 14 295 0 314 -1 324 -24 387 -65 178 -163 294
-306 361 -45 21 -85 39 -87 39 -2 0 22 -26 52 -59z"/>
<path d="M3907 5369 c-113 -26 -177 -93 -179 -186 0 -39 4 -51 26 -70 46 -39
117 -27 137 24 7 20 4 41 -13 90 l-23 65 24 19 c64 52 162 -9 176 -110 9 -68
-10 -154 -50 -221 -39 -66 -53 -109 -57 -175 -2 -39 0 -50 12 -50 9 0 18 16
23 45 12 57 23 72 88 120 125 91 141 105 163 144 35 59 40 98 22 159 -24 82
-81 126 -191 146 -68 13 -105 13 -158 0z"/>
<path d="M1334 5287 c-112 -156 -157 -258 -179 -404 -31 -203 -17 -305 79
-598 58 -178 96 -314 96 -349 1 -34 15 0 29 69 26 122 109 260 303 500 84 104
185 333 202 460 l7 50 -29 -45 c-15 -25 -69 -81 -118 -124 -281 -250 -331
-326 -369 -554 l-14 -87 4 95 c17 347 17 378 0 555 -23 239 -13 375 35 465 6
12 10 25 8 30 -2 5 -26 -23 -54 -63z"/>
<path d="M6533 5345 c3 -11 15 -47 27 -80 31 -90 35 -189 15 -420 -17 -185
-17 -228 -6 -416 7 -116 11 -212 9 -214 -2 -3 -10 36 -16 86 -28 210 -89 299
-376 553 -44 39 -92 90 -108 115 l-30 46 7 -50 c22 -162 118 -352 280 -560
139 -177 205 -296 229 -408 14 -69 26 -97 26 -61 0 33 38 169 100 359 80 247
94 321 86 465 -8 159 -27 239 -86 355 -47 95 -169 273 -157 230z"/>
<path d="M3886 4626 c-28 -25 -36 -41 -36 -67 0 -43 48 -104 87 -112 62 -12
133 49 133 113 0 48 -58 100 -110 100 -30 0 -46 -7 -74 -34z"/>
<path d="M1053 4517 c-61 -186 -67 -382 -20 -608 38 -179 78 -252 283 -515 60
-76 124 -163 143 -192 18 -28 34 -52 35 -52 0 0 0 60 -2 134 -4 168 10 250 84
474 30 92 65 220 79 284 26 122 49 331 43 389 -3 33 -4 32 -20 -22 -22 -68
-58 -137 -141 -265 -81 -125 -130 -223 -148 -294 -14 -59 -19 -294 -7 -370 16
-98 -14 7 -43 155 -27 134 -79 294 -114 350 -29 48 -96 210 -116 282 -13 48
-24 124 -28 198 l-6 120 -22 -68z"/>
<path d="M6840 4485 c0 -155 -30 -260 -138 -486 -64 -134 -95 -230 -126 -389
-27 -136 -50 -214 -38 -125 12 85 8 306 -7 365 -18 71 -67 170 -148 294 -76
117 -126 213 -144 276 l-14 45 -3 -40 c-6 -63 16 -256 43 -384 14 -64 49 -191
79 -283 74 -224 88 -306 84 -474 -2 -74 -2 -134 -2 -134 1 0 17 24 35 52 19
29 83 116 143 192 207 265 245 335 284 520 21 101 26 148 26 281 0 141 -3 171
-26 257 -40 146 -47 151 -48 33z"/>
<path d="M1647 3689 c-3 -52 -20 -161 -37 -244 -43 -211 -49 -326 -21 -435 12
-47 44 -131 71 -187 27 -57 47 -103 45 -103 -2 0 -51 71 -108 158 -127 191
-138 205 -285 357 -184 189 -253 293 -293 439 l-19 71 4 -160 c4 -176 16 -233
71 -350 43 -91 201 -306 271 -367 54 -47 216 -157 409 -278 55 -34 117 -76
138 -92 20 -16 37 -28 37 -26 0 2 -15 35 -34 73 -34 71 -76 225 -96 346 -5 37
-14 149 -20 251 -13 253 -36 390 -92 553 -32 93 -35 93 -41 -6z"/>
<path d="M6238 3710 c-61 -168 -85 -306 -98 -568 -6 -102 -15 -214 -20 -251
-20 -121 -62 -275 -96 -346 -19 -38 -34 -71 -34 -72 0 -1 33 21 74 50 41 29
109 74 153 101 224 140 327 212 399 281 37 35 184 242 219 309 59 110 77 191
81 366 l4 155 -23 -75 c-46 -150 -112 -246 -298 -435 -137 -139 -153 -160
-283 -357 -53 -81 -100 -149 -104 -152 -5 -3 10 32 34 77 23 45 55 120 70 167
42 125 41 266 -5 485 -19 88 -37 201 -40 250 l-6 90 -27 -75z"/>
<path d="M1845 3175 c32 -86 49 -161 75 -333 17 -108 40 -230 51 -270 34 -127
95 -229 208 -346 70 -73 55 -67 -64 25 -140 108 -226 159 -360 214 -257 106
-455 262 -543 430 l-21 40 6 -35 c3 -19 16 -68 29 -108 75 -227 216 -391 489
-567 94 -61 138 -79 270 -115 63 -17 504 -110 521 -110 2 0 -17 19 -43 42 -93
87 -170 235 -262 508 -56 163 -145 350 -226 469 -68 102 -142 190 -130 156z"/>
<path d="M6023 3127 c-119 -146 -229 -356 -304 -577 -93 -277 -171 -426 -266
-510 -45 -41 -46 -42 -18 -36 16 4 54 12 85 17 206 37 447 94 545 128 91 32
297 175 402 279 134 133 222 296 257 477 5 27 4 27 -15 -10 -20 -37 -56 -87
-104 -144 -26 -31 -149 -131 -200 -163 -80 -50 -154 -88 -231 -118 -127 -50
-229 -111 -369 -219 -119 -93 -135 -99 -70 -31 82 86 81 86 114 133 80 117
105 199 151 493 16 108 41 228 54 267 13 40 23 73 22 74 -2 2 -25 -25 -53 -60z"/>
<path d="M5791 7183 c-48 -43 -54 -78 -25 -160 28 -78 25 -116 -9 -111 -19 3
-22 9 -20 40 2 31 -2 41 -22 54 -33 22 -52 13 -64 -31 -12 -43 -7 -61 27 -98
58 -61 152 -54 185 16 22 45 22 43 -9 132 -28 81 -27 105 6 105 26 0 36 -25
19 -46 -12 -14 -9 -20 16 -40 17 -13 35 -22 40 -21 6 2 17 22 24 45 18 50 5
81 -45 112 -55 35 -87 36 -123 3z"/>
<path d="M6148 6788 l-97 -162 32 -28 c18 -15 36 -27 41 -28 4 0 41 30 82 66
41 37 74 64 74 61 0 -3 -26 -43 -57 -88 l-57 -82 34 -29 c19 -15 37 -28 41
-28 6 0 249 198 283 230 7 7 -39 59 -54 60 -3 0 -43 -36 -90 -79 -47 -43 -86
-78 -88 -76 -2 1 25 42 58 91 34 48 64 93 67 100 2 6 -10 22 -27 34 l-32 22
-36 -33 c-20 -19 -61 -56 -91 -84 -61 -57 -60 -54 22 68 l59 89 -28 29 c-15
16 -30 29 -33 29 -3 0 -50 -73 -103 -162z"/>
<path d="M1604 6893 c-33 -27 -65 -53 -72 -60 -10 -10 5 -34 80 -126 51 -62
104 -127 118 -145 l25 -31 72 57 c40 31 72 62 73 68 0 6 -8 21 -19 32 l-18 22
-38 -30 c-45 -36 -51 -37 -76 -7 -25 30 -24 33 13 66 l32 28 -21 26 -20 26
-36 -26 c-36 -25 -38 -26 -57 -8 -28 26 -25 39 17 72 l36 30 -19 26 c-10 15
-22 27 -25 27 -4 0 -33 -21 -65 -47z"/>
<path d="M1403 6717 l-65 -63 84 -90 c47 -49 104 -110 127 -136 l44 -48 66 62
c36 34 68 65 70 70 4 13 -41 60 -49 51 -3 -5 -20 -21 -38 -37 l-32 -30 -30 29
-30 29 32 33 32 33 -24 25 -24 25 -34 -32 -34 -33 -24 30 -24 30 35 28 c19 16
35 35 35 41 0 14 -31 46 -44 46 -5 0 -37 -28 -73 -63z"/>
<path d="M6432 6538 l-133 -131 67 -68 c65 -66 68 -67 90 -52 32 20 30 31 -11
73 l-35 36 30 29 30 29 33 -32 33 -32 24 25 24 25 -29 30 c-31 32 -29 51 8 74
13 8 24 3 52 -24 l35 -34 25 25 25 24 -67 67 -68 67 -133 -131z"/>
<path d="M1265 6571 c-16 -10 -50 -40 -75 -66 l-45 -47 135 -129 c74 -70 138
-129 141 -129 3 0 16 14 28 31 l23 31 -56 57 c-44 44 -54 59 -44 69 18 18 22
16 84 -38 l58 -50 28 27 c15 15 28 30 28 33 0 17 -124 110 -146 110 -18 0 -24
5 -24 23 0 30 -25 64 -60 82 -37 19 -39 19 -75 -4z"/>
<path d="M1061 6354 c-29 -36 -51 -69 -49 -74 3 -7 156 -137 237 -200 l44 -34
23 28 c13 15 24 31 24 35 0 5 -16 22 -36 37 -86 68 -81 57 -50 97 l27 35 -29
21 -30 21 -24 -32 c-24 -31 -24 -31 -51 -13 -33 21 -33 28 -2 70 l26 33 -29
21 -29 20 -52 -65z"/>
<path d="M6835 6341 c-6 -5 -75 -43 -155 -84 -79 -42 -146 -80 -148 -85 -2 -6
8 -22 21 -37 22 -26 24 -27 53 -12 27 14 30 14 46 -8 16 -22 16 -24 -2 -40
-26 -23 -25 -34 4 -70 29 -36 13 -49 165 129 l111 129 -33 40 c-37 45 -48 52
-62 38z"/>
<path d="M6855 6074 c-77 -52 -146 -99 -154 -103 -12 -7 -10 -15 8 -45 13 -20
24 -36 26 -36 2 0 30 18 61 40 62 43 79 48 88 25 6 -16 -3 -26 -71 -75 -24
-16 -43 -33 -43 -38 0 -4 10 -20 23 -36 l23 -28 67 47 c48 33 67 53 67 69 0
18 5 21 40 21 30 0 46 7 70 30 43 41 40 75 -15 158 -25 37 -46 67 -48 67 -1
-1 -65 -44 -142 -96z"/>
<path d="M862 6084 c-33 -23 -64 -90 -57 -124 16 -71 87 -94 188 -61 71 24
112 17 105 -17 -4 -20 -44 -28 -63 -12 -10 8 -18 3 -34 -23 -12 -19 -21 -37
-21 -39 0 -3 18 -13 40 -23 38 -17 43 -17 75 -2 44 21 75 71 75 120 0 31 -7
45 -31 68 -36 33 -87 38 -154 14 -22 -8 -55 -15 -73 -15 -29 0 -33 3 -30 23 3
22 25 27 59 13 11 -5 20 2 29 21 8 15 16 31 18 35 5 10 -53 38 -80 38 -13 0
-34 -7 -46 -16z"/>
<path d="M7055 5884 c-49 -30 -120 -71 -157 -91 -38 -21 -68 -40 -68 -44 0
-16 93 -159 103 -159 7 0 21 7 32 16 20 15 20 15 -3 54 -29 51 -28 56 10 76
30 16 33 16 43 -1 30 -51 39 -57 68 -44 33 15 33 18 6 64 -12 20 -20 37 -18
39 2 2 18 10 34 19 l31 15 23 -44 c13 -24 27 -44 30 -44 3 0 17 9 30 19 l23
18 -30 59 c-16 32 -38 69 -48 81 l-19 21 -90 -54z"/>
<path d="M723 5865 c-9 -19 -15 -36 -12 -38 2 -2 65 -39 139 -82 74 -43 145
-85 156 -92 20 -13 23 -11 43 22 11 20 21 37 21 39 0 3 -56 37 -235 140 -44
25 -83 46 -87 46 -5 0 -16 -16 -25 -35z"/>
<path d="M570 5578 c-21 -46 -37 -84 -36 -85 5 -5 326 -153 333 -153 9 0 89
168 82 174 -7 6 -48 26 -53 26 -3 0 -15 -19 -27 -42 -12 -24 -23 -45 -25 -47
-3 -3 -61 17 -72 25 -2 1 4 19 12 39 21 49 20 50 -10 64 -31 14 -38 10 -54
-31 -8 -18 -15 -34 -16 -36 -1 -2 -16 4 -34 13 -33 17 -34 28 -4 86 12 24 11
27 -12 38 -14 6 -30 11 -35 11 -6 0 -28 -37 -49 -82z"/>
<path d="M7153 5528 c-84 -39 -153 -76 -153 -83 0 -10 57 -144 65 -153 2 -2
50 16 63 24 2 1 -4 19 -12 39 -9 21 -16 41 -16 45 0 4 57 33 128 65 70 31 130
60 133 63 12 13 -21 72 -39 71 -9 0 -86 -33 -169 -71z"/>
<path d="M508 5408 c-45 -37 -65 -130 -35 -169 25 -33 214 -109 272 -109 49 0
78 34 72 82 -3 25 -1 35 7 32 13 -5 40 57 28 67 -11 10 -182 72 -186 68 -6 -8
-36 -90 -36 -98 0 -15 61 -25 70 -12 5 8 14 9 32 2 34 -13 44 -30 26 -47 -13
-13 -28 -9 -122 27 -93 36 -107 44 -104 63 2 17 10 21 37 21 29 0 36 5 48 33
13 31 12 33 -13 42 -35 14 -77 12 -96 -2z"/>
<path d="M7305 5358 c-55 -21 -125 -48 -155 -59 -30 -11 -58 -23 -63 -28 -5
-5 4 -45 23 -96 32 -83 34 -86 59 -80 40 10 44 19 27 60 -22 52 -20 62 15 74
45 15 44 15 58 -29 6 -22 13 -40 15 -40 9 0 66 23 66 26 0 3 -7 21 -15 41 -17
41 -11 53 29 56 24 2 30 -4 43 -38 9 -22 17 -41 18 -43 3 -4 65 20 65 26 0 22
-65 172 -74 171 -6 0 -56 -19 -111 -41z"/>
<path d="M416 5147 c-21 -21 -75 -163 -65 -170 2 -2 54 -18 114 -37 61 -18
136 -41 169 -51 32 -11 62 -19 66 -19 10 0 50 129 50 158 0 44 -41 71 -159
107 -62 19 -122 35 -133 35 -10 0 -29 -10 -42 -23z"/>
<path d="M7400 5140 c-14 -4 -63 -20 -110 -35 -102 -32 -120 -46 -120 -96 0
-29 6 -42 26 -58 15 -12 21 -21 14 -21 -9 0 -10 -10 -5 -37 4 -21 8 -39 9 -40
3 -4 184 52 191 59 7 7 -14 96 -24 103 -16 10 -53 -9 -62 -32 -7 -20 -15 -24
-41 -21 -21 2 -34 9 -36 20 -3 13 18 23 98 48 56 17 111 30 123 28 34 -5 33
-34 -2 -46 -36 -13 -34 -9 -20 -51 15 -41 50 -42 91 0 28 27 30 34 24 75 -12
92 -72 132 -156 104z"/>
<path d="M311 4830 c-12 -51 -20 -94 -19 -95 2 -1 80 -18 173 -39 94 -21 175
-40 181 -43 9 -3 60 185 52 192 -2 1 -17 5 -35 8 -34 7 -35 6 -48 -60 -5 -27
-11 -33 -33 -33 -45 0 -55 13 -47 58 7 43 5 46 -37 56 -25 6 -27 4 -34 -40
l-7 -46 -36 7 c-20 4 -37 8 -38 9 -1 0 3 23 9 49 5 27 8 50 6 53 -3 2 -18 7
-35 10 l-31 6 -21 -92z"/>
<path d="M7400 4866 c-91 -23 -167 -43 -169 -46 -7 -8 9 -80 18 -80 9 0 328
78 348 85 15 5 -5 85 -21 84 -6 -1 -85 -20 -176 -43z"/>
<path d="M7405 4739 c-107 -23 -140 -48 -140 -106 0 -81 38 -123 109 -123 40
0 180 27 219 42 71 28 76 141 7 195 -21 17 -90 14 -195 -8z"/>
<path d="M576 4618 c-3 -13 -6 -33 -6 -46 0 -20 -4 -23 -27 -18 -69 14 -276
47 -278 44 -2 -2 -5 -21 -7 -43 l-3 -40 184 -31 c122 -20 184 -27 186 -20 10
35 24 159 20 167 -4 5 -19 9 -34 9 -21 0 -30 -6 -35 -22z"/>
<path d="M7490 4489 c-85 -10 -163 -18 -172 -18 -14 -1 -18 -10 -18 -42 l0
-42 88 7 c48 4 98 10 112 13 47 11 9 -11 -88 -52 l-97 -41 4 -44 c1 -25 4 -46
5 -47 2 -3 247 22 326 32 l45 6 -3 40 c-4 36 -6 39 -36 39 -17 -1 -62 -5 -101
-10 -38 -5 -71 -7 -72 -6 -2 2 42 22 98 46 l101 43 -6 36 c-3 20 -6 42 -6 49
0 6 -6 11 -12 11 -7 -1 -83 -10 -168 -20z"/>
<path d="M238 4429 c-2 -22 0 -43 4 -45 5 -3 61 -16 126 -28 l117 -23 -123 -5
c-67 -3 -124 -7 -126 -9 -2 -2 -6 -21 -10 -41 -8 -43 -23 -36 144 -66 l105
-19 -125 -7 c-68 -4 -126 -8 -128 -11 -2 -2 -6 -22 -9 -45 -6 -42 -6 -42 23
-37 16 3 100 11 187 18 96 7 160 16 163 23 2 6 5 29 7 50 l2 39 -105 21 -105
21 99 7 c55 4 106 10 113 12 10 4 13 19 11 47 l-3 42 -160 43 c-88 24 -170 45
-181 48 -19 5 -22 1 -26 -35z"/>
<path d="M264 4040 c-35 -14 -54 -50 -54 -103 0 -40 5 -53 29 -78 l29 -29 130
0 c149 0 173 10 192 80 12 46 7 76 -22 110 -19 24 -25 25 -152 27 -72 1 -141
-2 -152 -7z"/>
<path d="M7515 3939 c-77 -9 -150 -18 -162 -18 -21 -1 -23 -6 -23 -50 0 -56
-8 -51 125 -72 67 -11 75 -14 50 -20 -16 -4 -65 -7 -107 -8 l-78 -1 0 -49 c0
-39 4 -51 18 -55 24 -8 280 -66 320 -73 l33 -6 -3 44 -3 43 -125 21 c-69 11
-114 21 -100 22 14 1 74 5 133 9 l108 6 -3 41 -3 42 -125 20 -125 20 130 10
130 10 3 43 c4 50 18 48 -193 21z"/>
<path d="M393 3792 l-173 -15 0 -44 0 -44 58 6 c31 3 80 8 107 10 l50 5 -35
-17 c-19 -9 -64 -28 -100 -43 l-65 -27 2 -43 c1 -23 4 -44 7 -47 4 -4 243 12
324 23 41 5 42 6 42 45 0 45 4 44 -142 31 -43 -4 -74 -5 -70 -1 4 4 51 23 105
44 72 28 97 42 97 55 0 37 -13 80 -24 78 -6 0 -89 -8 -183 -16z"/>
<path d="M7306 3569 c-8 -32 -26 -151 -26 -166 0 -8 13 -13 34 -13 38 0 46 12
46 66 0 31 3 34 29 34 53 0 61 -8 55 -54 -6 -39 -4 -44 17 -49 42 -11 47 -8
53 38 7 47 15 52 62 39 19 -5 20 -10 13 -52 -10 -53 -3 -65 37 -60 27 3 28 5
41 92 7 49 12 90 10 92 -1 1 -72 11 -157 24 -85 12 -167 24 -182 27 -22 4 -28
1 -32 -18z"/>
<path d="M510 3488 l-95 -51 -75 18 c-41 10 -80 20 -87 22 -7 3 -10 -3 -8 -14
15 -75 12 -71 73 -83 96 -19 105 -26 38 -34 -86 -11 -88 -12 -80 -55 4 -20 8
-37 9 -39 2 -3 270 40 338 54 20 4 27 11 27 29 0 51 -8 56 -70 49 -34 -4 -60
-2 -63 3 -4 6 21 22 55 36 59 26 60 27 54 58 -3 17 -6 38 -6 45 0 20 -6 18
-110 -38z"/>
<path d="M7240 3213 c-6 -21 -14 -63 -17 -93 -4 -49 -2 -57 18 -77 27 -24 200
-73 258 -73 54 0 76 26 97 114 10 42 16 77 13 79 -5 5 -335 87 -348 87 -6 0
-15 -17 -21 -37z"/>
<path d="M582 3013 c-16 -16 -41 -58 -56 -95 -26 -63 -46 -85 -67 -72 -16 10
-9 41 12 56 18 11 20 20 14 46 -7 36 -22 39 -65 17 -54 -28 -54 -129 0 -177
34 -31 56 -34 103 -14 38 15 60 45 78 104 22 73 79 109 87 54 3 -16 -3 -25
-22 -32 -29 -11 -30 -15 -15 -59 9 -26 15 -30 33 -25 21 6 55 30 68 49 12 16
9 73 -6 109 -29 70 -111 89 -164 39z"/>
<path d="M7187 2969 c-30 -22 -52 -88 -41 -122 13 -45 47 -67 157 -103 124
-40 153 -39 192 8 19 23 25 41 25 78 0 41 -4 52 -30 74 -32 26 -204 86 -250
86 -15 0 -39 -9 -53 -21z"/>
<path d="M580 2745 c-74 -30 -135 -55 -137 -55 -3 0 25 -72 31 -77 1 -2 65 22
140 52 76 30 142 53 147 49 5 -3 9 -13 9 -23 0 -13 -32 -30 -135 -71 -76 -30
-135 -59 -135 -66 0 -21 22 -64 33 -64 15 0 238 89 269 108 57 33 57 122 2
177 -37 37 -72 32 -224 -30z"/>
<path d="M7051 2639 c-6 -18 -11 -35 -11 -39 0 -4 43 -27 95 -50 52 -24 94
-45 92 -46 -2 -2 -45 3 -97 11 -52 8 -102 15 -111 15 -15 0 -58 -75 -48 -84
11 -9 332 -156 335 -153 2 1 10 19 18 38 l15 36 -95 43 c-52 23 -93 44 -92 46
2 1 48 -4 103 -11 55 -8 103 -15 106 -15 3 0 15 18 27 39 27 47 40 35 -143
122 -187 88 -180 87 -194 48z"/>
<path d="M925 2441 c-6 -5 -61 -35 -124 -66 l-114 -58 -16 22 c-15 19 -19 20
-44 9 -15 -7 -27 -17 -27 -22 0 -18 84 -166 95 -166 6 0 21 7 33 16 17 12 20
19 12 34 -5 10 -10 21 -10 24 0 3 57 35 128 72 70 37 129 69 131 71 2 1 -4 19
-15 38 -19 35 -32 42 -49 26z"/>
<path d="M6914 2356 c-28 -28 -34 -42 -34 -76 0 -23 5 -50 10 -60 13 -25 199
-129 242 -136 44 -8 93 31 110 87 20 67 -1 95 -123 162 -126 69 -156 72 -205
23z"/>
<path d="M943 2259 l-43 -21 18 -30 c22 -39 35 -43 66 -23 28 19 56 14 56 -9
0 -8 -45 -42 -101 -76 -94 -59 -102 -62 -117 -46 -18 19 -17 20 32 51 15 9 14
13 -4 43 -24 39 -39 40 -74 5 -47 -47 -47 -100 2 -153 46 -52 82 -50 183 10
137 82 144 89 144 150 0 47 -3 55 -37 86 -44 39 -67 42 -125 13z"/>
<path d="M6780 2135 c-26 -43 -37 -31 122 -132 105 -67 106 -68 93 -94 -13
-24 -12 -27 16 -43 17 -10 32 -16 33 -14 14 15 96 150 96 158 0 9 -39 40 -52
40 -3 0 -10 -9 -13 -20 -3 -11 -11 -20 -16 -20 -5 0 -60 33 -122 73 -61 40
-117 76 -124 80 -7 4 -20 -7 -33 -28z"/>
<path d="M1122 2080 l-23 -19 31 -43 31 -43 -28 -22 c-15 -13 -31 -23 -34 -23
-4 0 -19 16 -33 35 -27 35 -27 35 -51 18 -30 -22 -31 -33 -5 -66 26 -32 25
-38 -7 -61 -29 -21 -21 -26 -72 43 -18 24 -18 24 -44 5 -15 -10 -27 -23 -27
-27 0 -17 105 -146 116 -142 7 2 74 50 150 106 77 56 140 104 142 105 6 4
-108 154 -116 154 -4 -1 -17 -9 -30 -20z"/>
<path d="M6619 1909 c-25 -36 -33 -24 57 -96 l39 -31 -23 -32 -24 -32 23 -25
24 -24 27 30 c33 37 35 37 64 10 l23 -22 -26 -34 -26 -34 25 -25 25 -25 58 71
c32 39 56 73 53 75 -18 18 -284 225 -290 225 -4 0 -17 -14 -29 -31z"/>
<path d="M1316 1770 c-26 -22 -52 -40 -55 -40 -4 0 -18 12 -32 26 -35 38 -64
46 -102 30 -42 -17 -97 -80 -97 -110 0 -22 77 -137 101 -152 9 -5 86 48 134
92 11 11 53 45 93 77 l72 58 -22 29 c-13 16 -27 29 -33 29 -5 0 -32 -18 -59
-39z"/>
<path d="M6451 1718 c-38 -39 -48 -85 -28 -124 16 -30 146 -152 184 -172 67
-36 153 26 153 111 0 34 -8 45 -81 115 -95 90 -112 101 -160 102 -28 0 -44 -7
-68 -32z"/>
<path d="M1388 1637 l-46 -92 -73 -29 c-41 -15 -78 -32 -83 -37 -6 -5 1 -21
19 -39 l29 -30 44 25 c24 14 46 25 48 25 1 0 -8 -19 -21 -42 -14 -24 -25 -46
-25 -50 0 -11 46 -58 56 -58 5 0 25 36 44 80 l35 80 98 41 c53 23 97 45 97 49
0 3 -13 19 -29 34 l-29 28 -47 -27 c-26 -14 -50 -24 -52 -21 -3 2 7 25 22 51
l28 46 -29 30 c-15 16 -30 29 -34 29 -3 0 -26 -42 -52 -93z"/>
<path d="M6320 1575 c-26 -28 -31 -17 45 -103 35 -39 38 -55 11 -60 -12 -3
-35 14 -67 47 l-49 52 -36 -27 -35 -27 58 -59 c42 -43 65 -58 85 -58 23 0 28
-4 28 -25 0 -34 26 -73 62 -91 25 -13 32 -13 61 1 18 8 55 38 82 65 l48 49
-74 78 c-42 43 -97 102 -124 131 -26 28 -54 52 -60 52 -6 0 -22 -11 -35 -25z"/>
<path d="M1602 1518 l-22 -22 40 -41 40 -41 -30 -29 -30 -29 -28 27 c-34 32
-43 33 -67 7 -18 -20 -18 -21 15 -55 l34 -35 -27 -27 -27 -27 -33 32 c-39 38
-47 39 -70 7 -17 -24 -17 -25 26 -64 82 -76 97 -85 112 -70 7 8 63 70 125 139
l112 124 -68 63 c-38 34 -71 62 -74 63 -3 0 -16 -10 -28 -22z"/>
<path d="M6105 1385 c-14 -13 -25 -31 -25 -40 0 -9 -5 -13 -10 -10 -12 7 -60
-20 -60 -34 0 -5 27 -43 61 -85 l61 -76 26 20 c69 51 65 46 46 74 -11 17 -23
25 -34 21 -21 -7 -53 27 -48 52 2 10 11 18 20 18 22 0 161 -172 154 -191 -7
-19 -35 -18 -57 2 -17 15 -20 14 -49 -6 l-32 -22 33 -34 c47 -48 89 -44 151
14 35 32 44 72 24 110 -18 35 -129 170 -159 194 -32 25 -74 22 -102 -7z"/>
<path d="M5955 1264 c-11 -8 -26 -19 -34 -23 -11 -7 9 -40 88 -147 57 -77 106
-145 111 -153 7 -13 12 -12 34 3 15 9 29 23 32 31 3 8 -15 42 -40 77 -26 35
-62 86 -81 113 -19 28 -47 65 -62 82 -26 30 -29 32 -48 17z"/>
<path d="M1905 1124 c-44 -64 -83 -118 -87 -120 -4 -3 -17 1 -28 8 -18 11 -23
10 -40 -12 -11 -14 -20 -27 -19 -30 0 -7 159 -114 162 -109 1 2 11 14 22 27
19 24 19 24 -4 41 l-24 18 80 114 c44 63 82 119 86 126 6 9 -49 54 -64 53 -2
0 -40 -53 -84 -116z"/>
<path d="M5798 1157 c-21 -12 -38 -26 -38 -31 0 -7 138 -333 145 -344 2 -2 19
7 38 18 l36 22 -54 109 c-30 60 -55 112 -55 115 0 4 34 -36 76 -89 41 -54 79
-97 84 -97 5 0 21 11 37 24 l27 24 -69 78 c-100 113 -177 194 -184 194 -3 -1
-23 -11 -43 -23z"/>
<path d="M2098 1120 l-16 -29 44 -26 c24 -14 44 -28 44 -31 0 -16 -33 -64 -44
-64 -7 0 -25 9 -39 20 -33 26 -34 26 -53 -11 -13 -26 -14 -33 -2 -40 7 -5 15
-9 18 -9 3 0 13 -7 23 -14 17 -13 17 -16 2 -45 -8 -17 -18 -31 -20 -31 -3 0
-24 12 -46 27 l-41 27 -19 -25 c-10 -13 -18 -28 -18 -34 0 -5 36 -31 80 -57
l80 -46 23 36 c79 126 166 272 166 279 0 8 -148 103 -160 103 -3 0 -13 -13
-22 -30z"/>
<path d="M5605 1040 c-38 -22 -74 -41 -79 -43 -11 -4 12 -67 24 -67 4 0 28 11
53 26 l46 25 15 -30 c22 -42 20 -48 -16 -67 -18 -9 -34 -18 -36 -19 -4 -4 27
-65 33 -65 2 0 19 9 37 20 42 25 42 25 56 -5 18 -38 16 -43 -28 -65 -22 -11
-40 -22 -40 -25 0 -13 25 -55 32 -55 11 0 82 36 130 66 l37 23 -91 161 c-49
88 -93 160 -97 160 -3 0 -37 -18 -76 -40z"/>
<path d="M2265 950 c-25 -49 -45 -92 -45 -95 0 -2 22 -16 49 -29 l49 -25 13
30 c10 25 10 32 0 39 -19 11 14 72 37 68 30 -6 23 -41 -26 -133 -35 -67 -53
-91 -70 -93 -17 -3 -22 2 -22 20 0 13 5 29 11 35 8 8 3 15 -19 27 -17 9 -36
16 -42 16 -17 0 -39 -62 -33 -93 7 -34 64 -75 115 -83 50 -9 85 28 147 152 52
101 59 131 41 163 -11 22 -64 45 -85 37 -9 -3 -15 0 -15 9 0 7 -14 20 -30 29
l-30 15 -45 -89z"/>
<path d="M2514 897 c-6 -18 -20 -53 -30 -80 -15 -39 -16 -51 -6 -67 16 -26 15
-30 -6 -30 -25 0 -48 -27 -60 -70 -17 -63 3 -86 111 -130 33 -13 62 -19 66
-14 9 10 141 318 141 329 0 5 -62 35 -73 35 -3 0 -18 -31 -33 -70 -19 -47 -35
-70 -45 -70 -27 0 -28 23 -3 80 21 50 30 90 20 90 -2 0 -19 6 -38 14 -33 14
-34 14 -44 -17z"/>
<path d="M5190 843 c-19 -8 -36 -16 -37 -16 -1 -1 9 -47 23 -102 13 -55 24
-104 24 -109 0 -5 -21 33 -46 85 -25 52 -47 96 -50 98 -5 5 -94 -20 -94 -27 0
-8 62 -346 65 -359 3 -9 12 -10 37 -1 18 6 36 14 40 17 4 3 -6 58 -22 121 -16
63 -28 116 -26 117 1 1 26 -47 56 -107 30 -61 56 -110 57 -110 13 0 73 31 73
37 0 4 -13 58 -29 118 -16 61 -27 112 -25 114 2 2 14 -18 27 -45 13 -27 37
-77 55 -111 l32 -62 34 12 c20 7 36 16 38 21 3 13 -176 325 -187 325 -5 0 -26
-7 -45 -16z"/>
<path d="M2785 801 c-36 -15 -55 -47 -90 -151 -39 -117 -41 -130 -20 -169 23
-46 109 -69 159 -42 25 14 32 28 90 191 24 69 21 104 -13 138 -17 16 -44 32
-62 36 -37 7 -38 7 -64 -3z"/>
<path d="M4880 738 c-19 -6 -58 -17 -87 -25 -51 -14 -51 -14 -42 -45 4 -17 10
-32 12 -34 2 -2 26 3 52 11 27 8 50 13 51 12 8 -8 21 -78 16 -81 -4 -2 -24 -7
-45 -11 -33 -7 -38 -11 -33 -29 3 -11 6 -27 6 -34 0 -11 11 -12 49 -7 48 6 49
6 59 -25 9 -23 8 -32 -1 -35 -7 -2 -29 -9 -51 -15 -36 -11 -38 -14 -32 -43 3
-17 8 -32 10 -34 5 -5 168 38 178 46 4 3 -11 71 -32 151 -22 80 -43 158 -47
174 -10 35 -17 37 -63 24z"/>
<path d="M3055 651 c-9 -39 -20 -71 -24 -71 -3 0 -22 4 -43 9 -35 8 -36 7 -42
-21 -7 -38 -3 -44 34 -51 23 -5 30 -12 30 -29 0 -43 -14 -52 -60 -40 -39 10
-42 9 -51 -15 -5 -15 -8 -31 -6 -36 5 -16 168 -56 172 -43 13 36 94 350 92
352 -1 2 -21 6 -44 10 l-40 6 -18 -71z"/>
<path d="M3344 656 c-2 -6 -12 -63 -24 -126 -31 -172 -27 -162 -58 -158 -24 3
-27 0 -30 -32 l-3 -36 93 -16 c51 -9 94 -15 96 -13 2 1 6 19 9 39 5 34 4 36
-21 36 -14 0 -26 6 -26 13 0 6 11 73 24 147 13 74 22 138 20 141 -7 12 -76 16
-80 5z"/>
<path d="M4515 656 c-115 -23 -125 -40 -107 -181 22 -170 36 -195 110 -195 48
1 129 14 137 22 3 3 -8 85 -23 184 -21 133 -32 179 -43 181 -8 1 -41 -4 -74
-11z"/>
<path d="M3564 628 c-53 -14 -65 -37 -81 -160 -18 -138 -13 -172 30 -198 43
-26 107 -26 140 1 33 25 44 67 53 194 6 97 6 102 -17 128 -28 32 -80 47 -125
35z"/>
<path d="M4202 615 c-52 -23 -62 -59 -50 -190 6 -60 16 -122 24 -137 31 -59
151 -60 189 -1 15 23 17 41 11 141 -9 152 -29 190 -103 198 -21 2 -53 -2 -71
-11z"/>
<path d="M3741 425 l-3 -185 41 0 41 0 0 102 c0 56 4 98 8 92 10 -10 38 -101
48 -151 8 -43 25 -55 71 -51 l38 3 3 188 2 187 -39 0 -40 0 -3 -112 -3 -113
-17 60 c-10 33 -25 84 -34 113 l-15 52 -48 0 -47 0 -3 -185z"/>
</g>
</svg>
